# xmcd CD database file
#
# Track frame offsets:
#	150
#	19072
#	36644
#	51366
#	65338
#	82310
#	101382
#	120754
#	139226
#	166848
#	185320
#	201692
#	217464
#	233836
#	253058
#	270480
#	287602
#	307424
#	326496
#	342868
#
# Disc length: 4799 seconds
#
# Revision: 1
# Processed by: cddbd v1.5.2PL0 Copyright (c) Steve Scherf et al.
# Submitted via: CDex 1.51
#
DISCID=3a12bd14
DTITLE=The Real Book Play-Along - Volume I S-Z CD3
DYEAR=1900
DGENRE=Jazz
TTITLE0=Very Early
TTITLE1=Waltz for Debby
TTITLE2=Wave
TTITLE3=Well You Needn't (It's Over Now)
TTITLE4=West Coast Blues
TTITLE5=When I Fall in Love
TTITLE6=When Sunny Gets Blue
TTITLE7=When You Wish Upon a Star
TTITLE8=Windows
TTITLE9=Wives and Lovers (Hey, Little Girl)
TTITLE10=Woodchopper's Ball
TTITLE11=Woodyn' You
TTITLE12=Yes and No
TTITLE13=Yesterdays
TTITLE14=You Are Too Beautiful
TTITLE15=You Brought a New Kind of Love to Me
TTITLE16=You Don't Know What Love Is
TTITLE17=You Took Advantage of Me
TTITLE18=You're Nobody Till Somebody Loves You
TTITLE19=Young at Heart
EXTD=
EXTT0=
EXTT1=
EXTT2=
EXTT3=
EXTT4=
EXTT5=
EXTT6=
EXTT7=
EXTT8=
EXTT9=
EXTT10=
EXTT11=
EXTT12=
EXTT13=
EXTT14=
EXTT15=
EXTT16=
EXTT17=
EXTT18=
EXTT19=
PLAYORDER=
